# xmcd
#
# Track frame offsets:
#	150
#	14204
#	29117
#	44622
#	58108
#	72933
#	88027
#	100527
#	120053
#	133204
#	155454
#	170357
#	189273
#	207428
#	221662
#	240684
#	254419
#	266070
#	287548
#
# Disc length: 4076 seconds
#
# Revision: 0
# Processed by: cddbd v1.4b42PL1 Copyright (c) Steve Scherf et al.
# Submitted via: EasyCDDAExtractor 4.5.0.1
#
DISCID=1d0fea13
DTITLE=Sister Shirley Sydnor and Her New Orleans All Stars - The Old Time Way
DYEAR=1998
DGENRE=Gospel
TTITLE0=Sometimes My Burden Is So Hard To Bear
TTITLE1=Give Me That Old Time Religion
TTITLE2=I Shall Not Be Moved
TTITLE3=Amazing Grace
TTITLE4=Motherless Children
TTITLE5=Since I've Laid My Burden Down
TTITLE6=I'm Going Home
TTITLE7=The Old Rugged Cross
TTITLE8=This Train
TTITLE9=Just A Closer Walk With Thee
TTITLE10=Do Lord Remember Me
TTITLE11=Goin' Over The Hill
TTITLE12=What A Friend We Have In Jesus
TTITLE13=Lead Me Saviour
TTITLE14=His Eyes Is On The Sparrow
TTITLE15=What Do You Think About Jesus
TTITLE16=He's Got The Whole World In His Hands
TTITLE17=Bye And Bye
TTITLE18=Do Lord Remember Me
EXTD=
EXTT0=
EXTT1=
EXTT2=
EXTT3=
EXTT4=
EXTT5=
EXTT6=
EXTT7=
EXTT8=
EXTT9=
EXTT10=
EXTT11=
EXTT12=
EXTT13=
EXTT14=
EXTT15=
EXTT16=
EXTT17=
EXTT18=
PLAYORDER=
